<svg xmlns="http://www.w3.org/2000/svg" xmlns:xlink="http://www.w3.org/1999/xlink" width="71.244" height="72.16" viewBox="0 0 71.244 72.16">
  <defs>
    <clipPath id="clip-path">
      <path id="path4809" d="M0-682.665H71.244v71.244H0Z" transform="translate(0 682.665)" fill="none" stroke="#005f61" stroke-width="3"/>
    </clipPath>
  </defs>
  <g id="STRIcon2" transform="translate(0 0.458)">
    <g id="g4805">
      <g id="g4807" clip-path="url(#clip-path)">
        <g id="g4813" transform="translate(17.498 64.66)">
          <path id="path4815" d="M0,0V5.542" fill="none" stroke="#005f61" stroke-linecap="round" stroke-linejoin="round" stroke-miterlimit="10" stroke-width="3"/>
        </g>
        <g id="g4817" transform="translate(53.739 64.66)">
          <path id="path4819" d="M0,0V5.542" fill="none" stroke="#005f61" stroke-linecap="round" stroke-linejoin="round" stroke-miterlimit="10" stroke-width="3"/>
        </g>
      </g>
    </g>
    <g id="g4821" transform="translate(14.13 10.124)">
      <path id="path4823" d="M0,0V7.318" fill="none" stroke="#005f61" stroke-linecap="round" stroke-linejoin="round" stroke-miterlimit="10" stroke-width="3"/>
    </g>
    <g id="g4825" transform="translate(8.471 1.045)">
      <g id="Group_56883" data-name="Group 56883">
        <g id="g4833" transform="translate(0 45.232)">
          <path id="path4835" d="M0-158.311v2.09a3.388,3.388,0,0,0,3.388,3.388H50.912a3.388,3.388,0,0,0,3.388-3.388V-166.3a9.574,9.574,0,0,0-6.877-9.186l-4.329-1.271L27.15-167.284l-15.943-9.474-4.329,1.271A9.574,9.574,0,0,0,0-166.3v3.11" transform="translate(0 176.758)" fill="none" stroke="#005f61" stroke-linecap="round" stroke-linejoin="round" stroke-miterlimit="10" stroke-width="3"/>
        </g>
        <g id="g4837" transform="translate(27.15 38.897)">
          <path id="path4839" d="M-136.832-54.369l-9.7-6.335a20.935,20.935,0,0,1-3.387,11.417l-2.858,4.393" transform="translate(152.776 60.704)" fill="none" stroke="#005f61" stroke-linecap="round" stroke-linejoin="round" stroke-miterlimit="10" stroke-width="3"/>
        </g>
        <g id="g4841" transform="translate(11.206 38.897)">
          <path id="path4843" d="M0-54.369,9.7-60.7a20.935,20.935,0,0,0,3.387,11.417l2.858,4.393" transform="translate(0 60.704)" fill="none" stroke="#005f61" stroke-linecap="round" stroke-linejoin="round" stroke-miterlimit="10" stroke-width="3"/>
        </g>
        <g id="g4845" transform="translate(13.794 16.542)">
          <path id="path4847" d="M-39.158,0V3.151a2.289,2.289,0,0,1-2.289,2.289h-2.273V9.184a1.732,1.732,0,0,0,1.732,1.732.57.57,0,0,1,.566.538A11.081,11.081,0,0,0-30.365,21.829h0A11.081,11.081,0,0,0-19.307,11.454a.569.569,0,0,1,.566-.538,1.732,1.732,0,0,0,1.732-1.732V5.441h-2.273a2.289,2.289,0,0,1-2.289-2.289V0" transform="translate(43.721)" fill="none" stroke="#005f61" stroke-linecap="round" stroke-linejoin="round" stroke-miterlimit="10" stroke-width="3"/>
        </g>
        <g id="g4849" transform="translate(20.901 36.438)">
          <path id="path4851" d="M0,0V2.462l0,0" fill="none" stroke="#005f61" stroke-linecap="round" stroke-linejoin="round" stroke-miterlimit="10" stroke-width="3"/>
        </g>
        <g id="g4853" transform="translate(33.395 36.441)">
          <path id="path4855" d="M0-21.078v-2.456" transform="translate(0 23.535)" fill="none" stroke="#005f61" stroke-linecap="round" stroke-linejoin="round" stroke-miterlimit="10" stroke-width="3"/>
        </g>
        <g id="g4857" transform="translate(12.935 8.694)">
          <path id="path4859" d="M-178.482-5.66l-4.087-.506a20.349,20.349,0,0,0-5,0l-9.23,1.142-2.484.307V.5a1.024,1.024,0,0,0,.856,1.009,1.032,1.032,0,0,0,.168.015h26.381a1.04,1.04,0,0,0,.164-.014A1.024,1.024,0,0,0-170.85.5v-5.22l-2.489-.308-.293-.036" transform="translate(199.28 6.319)" fill="none" stroke="#005f61" stroke-linecap="round" stroke-linejoin="round" stroke-miterlimit="10" stroke-width="3"/>
        </g>
        <g id="g4861" transform="translate(40.504 16.527)">
          <path id="path4863" d="M0-46.813v-5.455" transform="translate(0 52.268)" fill="none" stroke="#005f61" stroke-linecap="round" stroke-linejoin="round" stroke-miterlimit="10" stroke-width="3"/>
        </g>
        <g id="g4865" transform="translate(13.791 16.527)">
          <path id="path4867" d="M0,0,0,5.455" fill="none" stroke="#005f61" stroke-linecap="round" stroke-linejoin="round" stroke-miterlimit="10" stroke-width="3"/>
        </g>
        <g id="g4869" transform="translate(4.801)">
          <path id="path4871" d="M-313.769-88.367l7.149-1.218a1.182,1.182,0,0,0,.16-2.292l-21.165-6.732a1.182,1.182,0,0,0-.717,0l-21.165,6.732a1.182,1.182,0,0,0,.16,2.292l7.151,1.218" transform="translate(350.33 98.663)" fill="none" stroke="#005f61" stroke-linecap="round" stroke-linejoin="round" stroke-miterlimit="10" stroke-width="3"/>
        </g>
        <g id="g4873" transform="translate(2.017 20.421)">
          <path id="path4875" d="M-12.26,0l-1.41,8.276A1.279,1.279,0,0,0-12.408,9.77h4.724A1.279,1.279,0,0,0-6.423,8.276L-7.833,0" transform="translate(13.688)" fill="none" stroke="#005f61" stroke-linecap="round" stroke-linejoin="round" stroke-miterlimit="10" stroke-width="3"/>
        </g>
        <g id="g4877" transform="translate(3.446 16.397)">
          <path id="path4879" d="M-37.988-9.594a1.118,1.118,0,0,0-1.118-1.118H-41.3a1.118,1.118,0,0,0-1.118,1.118v2.906h4.426Z" transform="translate(42.415 10.712)" fill="none" stroke="#005f61" stroke-linecap="round" stroke-linejoin="round" stroke-miterlimit="10" stroke-width="3"/>
        </g>
        <g id="g4881" transform="translate(21.828 45.035)">
          <path id="path4883" d="M-91.348,0A24.857,24.857,0,0,1-96.67.561,24.855,24.855,0,0,1-101.992,0" transform="translate(101.992)" fill="none" stroke="#005f61" stroke-linecap="round" stroke-linejoin="round" stroke-miterlimit="10" stroke-width="3"/>
        </g>
      </g>
    </g>
  </g>
</svg>
